<mxfile host="app.diagrams.net" modified="2022-01-14T08:39:58.547Z" agent="5.0 (Windows NT 10.0; Win64; x64) AppleWebKit/537.36 (KHTML, like Gecko) Chrome/96.0.4664.93 Safari/537.36" etag="7uC6QxjLqjg6cejzTtmr" version="16.2.6" type="github">
  <diagram id="ZevUd1AFPVkupMSgxhFf" name="第 1 页">
    <mxGraphModel dx="1422" dy="772" grid="1" gridSize="10" guides="1" tooltips="1" connect="1" arrows="1" fold="1" page="1" pageScale="1" pageWidth="827" pageHeight="1169" math="0" shadow="0">
      <root>
        <mxCell id="0" />
        <mxCell id="1" parent="0" />
        <mxCell id="r311_z1djrimGtoAHbHP-3" style="edgeStyle=orthogonalEdgeStyle;rounded=0;orthogonalLoop=1;jettySize=auto;html=1;entryX=0;entryY=0.5;entryDx=0;entryDy=0;sketch=1;" edge="1" parent="1" source="r311_z1djrimGtoAHbHP-1" target="r311_z1djrimGtoAHbHP-2">
          <mxGeometry relative="1" as="geometry" />
        </mxCell>
        <mxCell id="r311_z1djrimGtoAHbHP-1" value="" style="rounded=1;whiteSpace=wrap;html=1;sketch=1;" vertex="1" parent="1">
          <mxGeometry x="90" y="190" width="120" height="60" as="geometry" />
        </mxCell>
        <mxCell id="r311_z1djrimGtoAHbHP-2" value="" style="rounded=1;whiteSpace=wrap;html=1;sketch=1;" vertex="1" parent="1">
          <mxGeometry x="550" y="190" width="120" height="60" as="geometry" />
        </mxCell>
        <mxCell id="r311_z1djrimGtoAHbHP-4" value="" style="shape=flexArrow;endArrow=classic;html=1;rounded=0;sketch=1;" edge="1" parent="1">
          <mxGeometry width="50" height="50" relative="1" as="geometry">
            <mxPoint x="160" y="300" as="sourcePoint" />
            <mxPoint x="470" y="480" as="targetPoint" />
          </mxGeometry>
        </mxCell>
        <mxCell id="r311_z1djrimGtoAHbHP-6" value="" style="endArrow=classic;html=1;rounded=0;sketch=1;" edge="1" parent="1">
          <mxGeometry relative="1" as="geometry">
            <mxPoint x="170" y="270" as="sourcePoint" />
            <mxPoint x="480" y="370" as="targetPoint" />
          </mxGeometry>
        </mxCell>
        <mxCell id="r311_z1djrimGtoAHbHP-7" value="Label" style="edgeLabel;resizable=0;html=1;align=center;verticalAlign=middle;rounded=1;sketch=1;" connectable="0" vertex="1" parent="r311_z1djrimGtoAHbHP-6">
          <mxGeometry relative="1" as="geometry" />
        </mxCell>
        <mxCell id="r311_z1djrimGtoAHbHP-8" value="Source" style="edgeLabel;resizable=0;html=1;align=left;verticalAlign=bottom;rounded=1;sketch=1;" connectable="0" vertex="1" parent="r311_z1djrimGtoAHbHP-6">
          <mxGeometry x="-1" relative="1" as="geometry" />
        </mxCell>
        <mxCell id="r311_z1djrimGtoAHbHP-9" value="Target" style="edgeLabel;resizable=0;html=1;align=right;verticalAlign=bottom;rounded=1;sketch=1;" connectable="0" vertex="1" parent="r311_z1djrimGtoAHbHP-6">
          <mxGeometry x="1" relative="1" as="geometry" />
        </mxCell>
        <mxCell id="r311_z1djrimGtoAHbHP-11" style="edgeStyle=orthogonalEdgeStyle;rounded=0;sketch=1;orthogonalLoop=1;jettySize=auto;html=1;exitX=1;exitY=0.5;exitDx=0;exitDy=0;" edge="1" parent="1" source="r311_z1djrimGtoAHbHP-10">
          <mxGeometry relative="1" as="geometry">
            <mxPoint x="310" y="460" as="targetPoint" />
          </mxGeometry>
        </mxCell>
        <mxCell id="r311_z1djrimGtoAHbHP-10" value="" style="shape=ext;double=1;whiteSpace=wrap;html=1;aspect=fixed;rounded=1;sketch=1;" vertex="1" parent="1">
          <mxGeometry x="90" y="440" width="80" height="80" as="geometry" />
        </mxCell>
      </root>
    </mxGraphModel>
  </diagram>
</mxfile>
